<?xml version="1.0" encoding="utf-8"?>
<!DOCTYPE svg PUBLIC "-//W3C//DTD SVG 1.1//EN" "http://www.w3.org/Graphics/SVG/1.1/DTD/svg11.dtd">
<svg version="1.1" id="icann-logo" xmlns="http://www.w3.org/2000/svg" xmlns:xlink="http://www.w3.org/1999/xlink" x="0px" y="0px"
	 width="57px" height="48px" viewBox="107.2 77.198 576 457.542" enable-background="new 107.2 77.198 576 457.542"
	 xml:space="preserve">
	<polygon fill="#2E5369" points="205.107,534.739 164.025,534.739 164.025,522.323 175.526,522.323 175.526,477.065 
		164.025,477.065 164.025,464.649 205.107,464.649 205.107,477.065 193.606,477.065 193.606,522.323 205.107,522.323 	"/>
	<path fill="#2E5369" d="M272.523,536.112c-5.205,0-10.01-0.77-14.416-2.308c-4.406-1.538-8.192-3.829-11.359-6.874
		s-5.621-6.843-7.361-11.395c-1.74-4.551-2.61-9.81-2.61-15.772c0-5.556,0.831-10.594,2.493-15.112
		c1.662-4.521,4.077-8.396,7.244-11.63c3.042-3.106,6.812-5.509,11.312-7.203c4.5-1.695,9.415-2.542,14.746-2.542
		c2.947,0,5.604,0.163,7.972,0.493c2.368,0.329,4.555,0.762,6.562,1.294c2.101,0.598,4.006,1.265,5.715,2.001
		c1.709,0.737,3.207,1.421,4.492,2.049v16.991h-2.07c-0.878-0.749-1.983-1.639-3.316-2.669c-1.333-1.028-2.846-2.044-4.539-3.042
		c-1.725-0.999-3.591-1.842-5.598-2.527c-2.007-0.687-4.155-1.03-6.444-1.03c-2.54,0-4.955,0.399-7.244,1.198
		s-4.406,2.122-6.35,3.971c-1.85,1.785-3.347,4.15-4.492,7.095c-1.145,2.945-1.717,6.516-1.717,10.712
		c0,4.387,0.619,8.051,1.857,10.994c1.239,2.944,2.799,5.264,4.68,6.954c1.913,1.724,4.046,2.952,6.397,3.688
		c2.351,0.735,4.672,1.104,6.961,1.104c2.195,0,4.367-0.328,6.515-0.981c2.148-0.654,4.131-1.543,5.95-2.666
		c1.537-0.903,2.963-1.87,4.28-2.898c1.317-1.029,2.399-1.917,3.246-2.665h1.882v16.75c-1.756,0.783-3.434,1.521-5.033,2.211
		c-1.6,0.689-3.277,1.286-5.033,1.788c-2.289,0.658-4.437,1.16-6.444,1.505C278.795,535.94,276.036,536.112,272.523,536.112
		L272.523,536.112z"/>
	<path fill="#2E5369" d="M396.382,534.739h-18.663l-4.866-14.132h-25.918l-4.866,14.132h-18.237l25.877-70.09h20.796
		L396.382,534.739L396.382,534.739z M368.5,507.733l-8.606-25.074l-8.608,25.074H368.5L368.5,507.733z"/>
	<polygon fill="#2E5369" points="491.275,534.739 473.835,534.739 444.072,486.632 444.072,534.739 427.479,534.739 
		427.479,464.649 449.11,464.649 474.683,504.802 474.683,464.649 491.275,464.649 	"/>
	<polygon fill="#2E5369" points="593.951,534.739 576.511,534.739 546.747,486.632 546.747,534.739 530.154,534.739 
		530.154,464.649 551.786,464.649 577.358,504.802 577.358,464.649 593.951,464.649 	"/>
	<path fill="#2E5369" d="M530.77,158.368c22.685,44.156,17.995,108.576-12.552,147.591c-16.18,22.683-39.166,40.527-63.059,50.659
		c-39.015,27.371-102.679,29.64-144.265,6.503c-16.634-9.226-32.966-22.078-45.82-38.107c-31.605,1.967-63.361,1.663-94.06-2.269
		c62.605,3.023,121.884-8.317,175.719-29.942c1.966,4.688,5.142,8.771,7.712,13.156c-17.391,5.595-34.63,11.039-52.776,14.062
		c38.259,43.553,102.83,54.289,156.211,34.934c47.786-35.537,68.654-89.22,57.615-147.592
		C507.179,155.192,456.521,104.08,404.5,94.704c-17.844-4.083-40.829-4.083-58.825,0c22.078,21.322,42.04,44.61,60.489,68.049
		c15.271-12.551,30.244-28.127,43.551-42.947c8.317,2.873,15.576,10.585,21.171,17.844c-15.575,16.937-32.512,32.966-50.054,46.273
		c10.283,14.971,18.902,30.546,28.278,45.82c17.391-14.517,34.78-31.303,50.054-48.542h1.21c5.142,9.073,7.863,19.054,8.166,29.942
		c-15.575,14.517-31.454,27.673-47.938,39.771c1.814,8.468,7.409,16.483,10.282,25.103c5.596,11.644,8.771,24.195,13.156,36.444
		c-1.36,7.863-6.653,14.215-12.551,20.112C448.958,245.47,407.826,165.02,344.615,94.098l-25.104,7.107
		c-8.62,6.502-17.088,14.517-24.498,22.834c8.015,31.756,18.902,62.303,32.664,91.488h2.269
		c22.683-12.098,44.308-27.22,65.327-43.552c4.386,6.503,8.62,14.064,12.552,21.322c-22.381,16.483-46.425,29.035-71.376,39.166
		v1.664c9.073,16.937,18.449,33.722,29.337,50.054c23.439-10.434,45.367-24.347,66.538-40.376
		c3.478,6.049,5.442,13.458,8.166,20.264c-20.112,14.215-42.646,24.649-64.874,34.781c14.517,19.507,28.883,39.015,46.878,57.162
		c-9.073,1.814-17.844,1.21-27.22,0.604c-51.112-69.864-85.439-146.533-101.317-230.914
		c-26.161,30.396-37.503,67.596-34.327,109.484l-26.01,7.561c-4.688-59.43,29.337-114.323,82.718-140.484
		c16.181-8.922,32.361-17.693,50.659-21.776c60.639-12.098,119.01,9.375,153.942,61.093L530.77,158.368L530.77,158.368
		L530.77,158.368z"/>
	<path fill="#2E5369" d="M319.514,238.364c-17.39,6.502-35.688,10.737-54.439,14.215c-2.117,3.327,0.454,7.41,1.209,10.888
		c4.839,14.366,11.342,27.976,20.566,40.225c-10.283,3.176-21.171,4.991-32.059,7.108c-10.434-16.181-16.937-34.176-20.112-53.381
		c-18.298,1.361-38.107,1.966-57.766,1.664c48.693-3.781,94.059-15.727,136.099-35.386L319.514,238.364L319.514,238.364
		L319.514,238.364z"/>
	<path fill="#2E5369" d="M683.2,449.619c-186.152-18.902-389.696-20.717-576-0.454C287.456,410.906,503.398,410.302,683.2,449.619
		L683.2,449.619L683.2,449.619z"/>
</svg>